<?xml version="1.0" encoding="UTF-8" standalone="no"?>
<!DOCTYPE svg PUBLIC "-//W3C//DTD SVG 1.1//EN"
 "http://www.w3.org/Graphics/SVG/1.1/DTD/svg11.dtd">
<!-- Generated by graphviz version 12.2.1 (20241206.2353)
 -->
<!-- Title: G Pages: 1 -->
<svg width="763pt" height="589pt"
 viewBox="0.00 0.00 762.75 589.00" xmlns="http://www.w3.org/2000/svg" xmlns:xlink="http://www.w3.org/1999/xlink">
<g id="graph0" class="graph" transform="scale(1 1) rotate(0) translate(4 585)">
<title>G</title>
<polygon fill="white" stroke="none" points="-4,4 -4,-585 758.75,-585 758.75,4 -4,4"/>
<!-- COMPANY -->
<g id="node1" class="node">
<title>COMPANY</title>
<text text-anchor="start" x="39.88" y="-50.35" font-family="Bitstream-Vera Sans" font-size="7.00">COMPANY</text>
<polygon fill="none" stroke="black" points="24,-44 24,-46 86.5,-46 86.5,-44 24,-44"/>
<text text-anchor="start" x="26" y="-35.35" font-family="Bitstream-Vera Sans" font-size="7.00">&#45; id(PK) : INTEGER</text>
<text text-anchor="start" x="26" y="-22.35" font-family="Bitstream-Vera Sans" font-size="7.00">&#45; name : VARCHAR</text>
<text text-anchor="start" x="26" y="-9.35" font-family="Bitstream-Vera Sans" font-size="7.00">&#45; code : VARCHAR</text>
<polygon fill="none" stroke="black" points="23,-4 23,-60 87.5,-60 87.5,-4 23,-4"/>
</g>
<!-- DKS -->
<g id="node2" class="node">
<title>DKS</title>
<text text-anchor="start" x="140.25" y="-302.35" font-family="Bitstream-Vera Sans" font-size="7.00">DKS</text>
<polygon fill="none" stroke="black" points="104.5,-296 104.5,-298 188,-298 188,-296 104.5,-296"/>
<text text-anchor="start" x="106.5" y="-287.35" font-family="Bitstream-Vera Sans" font-size="7.00">&#45; id(PK) : INTEGER</text>
<text text-anchor="start" x="106.5" y="-274.35" font-family="Bitstream-Vera Sans" font-size="7.00">&#45; name : VARCHAR</text>
<text text-anchor="start" x="106.5" y="-261.35" font-family="Bitstream-Vera Sans" font-size="7.00">&#45; field_id(FK) : INTEGER</text>
<text text-anchor="start" x="106.5" y="-248.35" font-family="Bitstream-Vera Sans" font-size="7.00">&#45; name_prefix : VARCHAR</text>
<text text-anchor="start" x="106.5" y="-235.35" font-family="Bitstream-Vera Sans" font-size="7.00">&#45; code : VARCHAR</text>
<polygon fill="none" stroke="black" points="103.5,-230 103.5,-312 189,-312 189,-230 103.5,-230"/>
</g>
<!-- FIELD -->
<g id="node3" class="node">
<title>FIELD</title>
<text text-anchor="start" x="46.25" y="-176.35" font-family="Bitstream-Vera Sans" font-size="7.00">FIELD</text>
<polygon fill="none" stroke="black" points="9,-170 9,-172 101.5,-172 101.5,-170 9,-170"/>
<text text-anchor="start" x="11" y="-161.35" font-family="Bitstream-Vera Sans" font-size="7.00">&#45; id(PK) : INTEGER</text>
<text text-anchor="start" x="11" y="-148.35" font-family="Bitstream-Vera Sans" font-size="7.00">&#45; name : VARCHAR</text>
<text text-anchor="start" x="11" y="-135.35" font-family="Bitstream-Vera Sans" font-size="7.00">&#45; company_id(FK) : INTEGER</text>
<text text-anchor="start" x="11" y="-122.35" font-family="Bitstream-Vera Sans" font-size="7.00">&#45; name_prefix : VARCHAR</text>
<text text-anchor="start" x="11" y="-109.35" font-family="Bitstream-Vera Sans" font-size="7.00">&#45; code : VARCHAR</text>
<polygon fill="none" stroke="black" points="8,-104 8,-186 102.5,-186 102.5,-104 8,-104"/>
</g>
<!-- DKS&#45;&gt;FIELD -->
<g id="edge1" class="edge">
<title>DKS&#45;&gt;FIELD</title>
<path fill="none" stroke="black" d="M108.16,-218.1C102.97,-211.02 97.64,-203.77 92.47,-196.71"/>
<polygon fill="black" stroke="black" points="108.05,-217.95 110.34,-228.68 111.21,-222.25 113.77,-225.74 113.77,-225.74 113.77,-225.74 111.21,-222.25 117.6,-223.35 108.05,-217.95"/>
<ellipse fill="none" stroke="black" cx="90.01" cy="-193.37" rx="4" ry="4"/>
<text text-anchor="middle" x="93.73" y="-192.09" font-family="Bitstream-Vera Sans" font-size="7.00">+ id</text>
<text text-anchor="middle" x="99.54" y="-219.63" font-family="Bitstream-Vera Sans" font-size="7.00">+ field_id</text>
</g>
<!-- FIELD&#45;&gt;COMPANY -->
<g id="edge2" class="edge">
<title>FIELD&#45;&gt;COMPANY</title>
<path fill="none" stroke="black" d="M55.25,-89.77C55.25,-84.08 55.25,-78.37 55.25,-72.89"/>
<polygon fill="black" stroke="black" points="55.25,-89.8 50.75,-99.8 55.25,-95.13 55.25,-99.46 55.25,-99.46 55.25,-99.46 55.25,-95.13 59.75,-99.8 55.25,-89.8"/>
<ellipse fill="none" stroke="black" cx="55.25" cy="-68.4" rx="4" ry="4"/>
<text text-anchor="middle" x="48.88" y="-66.25" font-family="Bitstream-Vera Sans" font-size="7.00">+ id</text>
<text text-anchor="middle" x="33.12" y="-93.48" font-family="Bitstream-Vera Sans" font-size="7.00">+ company_id</text>
</g>
<!-- EQ_COMPRESSOR_PERFORMANCE_CURVE -->
<g id="node4" class="node">
<title>EQ_COMPRESSOR_PERFORMANCE_CURVE</title>
<text text-anchor="start" x="144.12" y="-567.35" font-family="Bitstream-Vera Sans" font-size="7.00">EQ_COMPRESSOR_PERFORMANCE_CURVE</text>
<polygon fill="none" stroke="black" points="142.12,-561 142.12,-563 280.38,-563 280.38,-561 142.12,-561"/>
<text text-anchor="start" x="144.12" y="-552.35" font-family="Bitstream-Vera Sans" font-size="7.00">&#45; id(PK) : INTEGER</text>
<text text-anchor="start" x="144.12" y="-539.35" font-family="Bitstream-Vera Sans" font-size="7.00">&#45; head : FLOAT</text>
<text text-anchor="start" x="144.12" y="-526.35" font-family="Bitstream-Vera Sans" font-size="7.00">&#45; non_dim_rate : FLOAT</text>
<text text-anchor="start" x="144.12" y="-513.35" font-family="Bitstream-Vera Sans" font-size="7.00">&#45; kpd : FLOAT</text>
<text text-anchor="start" x="144.12" y="-500.35" font-family="Bitstream-Vera Sans" font-size="7.00">&#45; unit_id(FK) : INTEGER</text>
<polygon fill="none" stroke="black" points="141.12,-495 141.12,-577 281.38,-577 281.38,-495 141.12,-495"/>
</g>
<!-- EQ_COMPRESSOR_UNIT -->
<g id="node5" class="node">
<title>EQ_COMPRESSOR_UNIT</title>
<text text-anchor="start" x="173.38" y="-441.35" font-family="Bitstream-Vera Sans" font-size="7.00">EQ_COMPRESSOR_UNIT</text>
<polygon fill="none" stroke="black" points="169.5,-435 169.5,-437 253,-437 253,-435 169.5,-435"/>
<text text-anchor="start" x="171.5" y="-426.35" font-family="Bitstream-Vera Sans" font-size="7.00">&#45; id(PK) : INTEGER</text>
<text text-anchor="start" x="171.5" y="-413.35" font-family="Bitstream-Vera Sans" font-size="7.00">&#45; name : VARCHAR</text>
<text text-anchor="start" x="171.5" y="-400.35" font-family="Bitstream-Vera Sans" font-size="7.00">&#45; type_id(FK) : INTEGER</text>
<text text-anchor="start" x="171.5" y="-387.35" font-family="Bitstream-Vera Sans" font-size="7.00">&#45; dks_id(FK) : INTEGER</text>
<text text-anchor="start" x="171.5" y="-374.35" font-family="Bitstream-Vera Sans" font-size="7.00">&#45; name_prefix : VARCHAR</text>
<text text-anchor="start" x="171.5" y="-361.35" font-family="Bitstream-Vera Sans" font-size="7.00">&#45; code : VARCHAR</text>
<polygon fill="none" stroke="black" points="168.5,-356 168.5,-451 254,-451 254,-356 168.5,-356"/>
</g>
<!-- EQ_COMPRESSOR_PERFORMANCE_CURVE&#45;&gt;EQ_COMPRESSOR_UNIT -->
<g id="edge3" class="edge">
<title>EQ_COMPRESSOR_PERFORMANCE_CURVE&#45;&gt;EQ_COMPRESSOR_UNIT</title>
<path fill="none" stroke="black" d="M211.25,-480.82C211.25,-475.15 211.25,-469.37 211.25,-463.65"/>
<polygon fill="black" stroke="black" points="211.25,-480.85 206.75,-490.85 211.25,-486.18 211.25,-490.51 211.25,-490.51 211.25,-490.51 211.25,-486.18 215.75,-490.85 211.25,-480.85"/>
<ellipse fill="none" stroke="black" cx="211.25" cy="-459.23" rx="4" ry="4"/>
<text text-anchor="middle" x="204.88" y="-457.08" font-family="Bitstream-Vera Sans" font-size="7.00">+ id</text>
<text text-anchor="middle" x="197.38" y="-484.53" font-family="Bitstream-Vera Sans" font-size="7.00">+ unit_id</text>
</g>
<!-- EQ_COMPRESSOR_UNIT&#45;&gt;DKS -->
<g id="edge4" class="edge">
<title>EQ_COMPRESSOR_UNIT&#45;&gt;DKS</title>
<path fill="none" stroke="black" d="M181.48,-342.73C178.32,-336.39 175.13,-329.98 172.02,-323.74"/>
<polygon fill="black" stroke="black" points="181.51,-342.79 181.94,-353.75 183.89,-347.57 185.82,-351.45 185.82,-351.45 185.82,-351.45 183.89,-347.57 190,-349.74 181.51,-342.79"/>
<ellipse fill="none" stroke="black" cx="170.15" cy="-319.97" rx="4" ry="4"/>
<text text-anchor="middle" x="161.76" y="-318.3" font-family="Bitstream-Vera Sans" font-size="7.00">+ id</text>
<text text-anchor="middle" x="172.62" y="-345.4" font-family="Bitstream-Vera Sans" font-size="7.00">+ dks_id</text>
</g>
<!-- EQ_COMPRESSOR_TYPE -->
<g id="node6" class="node">
<title>EQ_COMPRESSOR_TYPE</title>
<text text-anchor="start" x="328.38" y="-302.35" font-family="Bitstream-Vera Sans" font-size="7.00">EQ_COMPRESSOR_TYPE</text>
<polygon fill="none" stroke="black" points="314,-296 314,-298 418.5,-298 418.5,-296 314,-296"/>
<text text-anchor="start" x="316" y="-287.35" font-family="Bitstream-Vera Sans" font-size="7.00">&#45; id(PK) : INTEGER</text>
<text text-anchor="start" x="316" y="-274.35" font-family="Bitstream-Vera Sans" font-size="7.00">&#45; press_out_id(FK) : INTEGER</text>
<text text-anchor="start" x="316" y="-261.35" font-family="Bitstream-Vera Sans" font-size="7.00">&#45; comp_ratio_id(FK) : INTEGER</text>
<text text-anchor="start" x="316" y="-248.35" font-family="Bitstream-Vera Sans" font-size="7.00">&#45; freq_nominal_id(FK) : INTEGER</text>
<text text-anchor="start" x="316" y="-235.35" font-family="Bitstream-Vera Sans" font-size="7.00">&#45; power_id(FK) : INTEGER</text>
<polygon fill="none" stroke="black" points="313,-230 313,-312 419.5,-312 419.5,-230 313,-230"/>
</g>
<!-- EQ_COMPRESSOR_UNIT&#45;&gt;EQ_COMPRESSOR_TYPE -->
<g id="edge5" class="edge">
<title>EQ_COMPRESSOR_UNIT&#45;&gt;EQ_COMPRESSOR_TYPE</title>
<path fill="none" stroke="black" d="M269.17,-353.74C281.59,-343.28 294.74,-332.21 307.2,-321.71"/>
<polygon fill="black" stroke="black" points="269.48,-353.47 258.93,-356.47 265.4,-356.91 262.09,-359.7 262.09,-359.7 262.09,-359.7 265.4,-356.91 264.73,-363.36 269.48,-353.47"/>
<ellipse fill="none" stroke="black" cx="310.61" cy="-318.85" rx="4" ry="4"/>
<text text-anchor="middle" x="307.67" y="-318.3" font-family="Bitstream-Vera Sans" font-size="7.00">+ id</text>
<text text-anchor="middle" x="276.57" y="-362.48" font-family="Bitstream-Vera Sans" font-size="7.00">+ type_id</text>
</g>
<!-- EQ_COMPRESSOR_TYPE_COMP_RATIO -->
<g id="node7" class="node">
<title>EQ_COMPRESSOR_TYPE_COMP_RATIO</title>
<text text-anchor="start" x="139.5" y="-156.85" font-family="Bitstream-Vera Sans" font-size="7.00">EQ_COMPRESSOR_TYPE_COMP_RATIO</text>
<polygon fill="none" stroke="black" points="137.5,-150.5 137.5,-152.5 263,-152.5 263,-150.5 137.5,-150.5"/>
<text text-anchor="start" x="139.5" y="-141.85" font-family="Bitstream-Vera Sans" font-size="7.00">&#45; id(PK) : INTEGER</text>
<text text-anchor="start" x="139.5" y="-128.85" font-family="Bitstream-Vera Sans" font-size="7.00">&#45; value : FLOAT</text>
<polygon fill="none" stroke="black" points="136.5,-123.5 136.5,-166.5 264,-166.5 264,-123.5 136.5,-123.5"/>
</g>
<!-- EQ_COMPRESSOR_TYPE&#45;&gt;EQ_COMPRESSOR_TYPE_COMP_RATIO -->
<g id="edge9" class="edge">
<title>EQ_COMPRESSOR_TYPE&#45;&gt;EQ_COMPRESSOR_TYPE_COMP_RATIO</title>
<path fill="none" stroke="black" d="M299.65,-220.25C279.29,-205.04 257.56,-188.81 239.62,-175.41"/>
<polygon fill="black" stroke="black" points="299.45,-220.1 304.76,-229.69 303.72,-223.29 307.19,-225.88 307.19,-225.88 307.19,-225.88 303.72,-223.29 310.15,-222.48 299.45,-220.1"/>
<ellipse fill="none" stroke="black" cx="236.3" cy="-172.93" rx="4" ry="4"/>
<text text-anchor="middle" x="226.32" y="-172.58" font-family="Bitstream-Vera Sans" font-size="7.00">+ id</text>
<text text-anchor="middle" x="282.6" y="-219.63" font-family="Bitstream-Vera Sans" font-size="7.00">+ comp_ratio_id</text>
</g>
<!-- EQ_COMPRESSOR_TYPE_FREQ_NOMINAL -->
<g id="node8" class="node">
<title>EQ_COMPRESSOR_TYPE_FREQ_NOMINAL</title>
<text text-anchor="start" x="301" y="-156.85" font-family="Bitstream-Vera Sans" font-size="7.00">EQ_COMPRESSOR_TYPE_FREQ_NOMINAL</text>
<polygon fill="none" stroke="black" points="299,-150.5 299,-152.5 433.5,-152.5 433.5,-150.5 299,-150.5"/>
<text text-anchor="start" x="301" y="-141.85" font-family="Bitstream-Vera Sans" font-size="7.00">&#45; id(PK) : INTEGER</text>
<text text-anchor="start" x="301" y="-128.85" font-family="Bitstream-Vera Sans" font-size="7.00">&#45; value : FLOAT</text>
<polygon fill="none" stroke="black" points="298,-123.5 298,-166.5 434.5,-166.5 434.5,-123.5 298,-123.5"/>
</g>
<!-- EQ_COMPRESSOR_TYPE&#45;&gt;EQ_COMPRESSOR_TYPE_FREQ_NOMINAL -->
<g id="edge6" class="edge">
<title>EQ_COMPRESSOR_TYPE&#45;&gt;EQ_COMPRESSOR_TYPE_FREQ_NOMINAL</title>
<path fill="none" stroke="black" d="M366.25,-215.94C366.25,-203.34 366.25,-190.3 366.25,-178.94"/>
<polygon fill="black" stroke="black" points="366.25,-215.95 361.75,-225.95 366.25,-221.28 366.25,-225.61 366.25,-225.61 366.25,-225.61 366.25,-221.28 370.75,-225.95 366.25,-215.95"/>
<ellipse fill="none" stroke="black" cx="366.25" cy="-174.73" rx="4" ry="4"/>
<text text-anchor="middle" x="359.88" y="-172.58" font-family="Bitstream-Vera Sans" font-size="7.00">+ id</text>
<text text-anchor="middle" x="338.12" y="-219.63" font-family="Bitstream-Vera Sans" font-size="7.00">+ freq_nominal_id</text>
</g>
<!-- EQ_COMPRESSOR_TYPE_POWER -->
<g id="node9" class="node">
<title>EQ_COMPRESSOR_TYPE_POWER</title>
<text text-anchor="start" x="471.88" y="-156.85" font-family="Bitstream-Vera Sans" font-size="7.00">EQ_COMPRESSOR_TYPE_POWER</text>
<polygon fill="none" stroke="black" points="469.88,-150.5 469.88,-152.5 576.62,-152.5 576.62,-150.5 469.88,-150.5"/>
<text text-anchor="start" x="471.88" y="-141.85" font-family="Bitstream-Vera Sans" font-size="7.00">&#45; id(PK) : INTEGER</text>
<text text-anchor="start" x="471.88" y="-128.85" font-family="Bitstream-Vera Sans" font-size="7.00">&#45; value : FLOAT</text>
<polygon fill="none" stroke="black" points="468.88,-123.5 468.88,-166.5 577.62,-166.5 577.62,-123.5 468.88,-123.5"/>
</g>
<!-- EQ_COMPRESSOR_TYPE&#45;&gt;EQ_COMPRESSOR_TYPE_POWER -->
<g id="edge8" class="edge">
<title>EQ_COMPRESSOR_TYPE&#45;&gt;EQ_COMPRESSOR_TYPE_POWER</title>
<path fill="none" stroke="black" d="M429.52,-220.03C448.54,-205.01 468.8,-189.01 485.59,-175.74"/>
<polygon fill="black" stroke="black" points="429.71,-219.88 419.08,-222.54 425.53,-223.18 422.13,-225.87 422.13,-225.87 422.13,-225.87 425.53,-223.18 424.65,-229.61 429.71,-219.88"/>
<ellipse fill="none" stroke="black" cx="489.04" cy="-173.02" rx="4" ry="4"/>
<text text-anchor="middle" x="486.19" y="-172.58" font-family="Bitstream-Vera Sans" font-size="7.00">+ id</text>
<text text-anchor="middle" x="403.98" y="-219.63" font-family="Bitstream-Vera Sans" font-size="7.00">+ power_id</text>
</g>
<!-- EQ_COMPRESSOR_TYPE_PRESSURE_OUT -->
<g id="node10" class="node">
<title>EQ_COMPRESSOR_TYPE_PRESSURE_OUT</title>
<text text-anchor="start" x="614.75" y="-156.85" font-family="Bitstream-Vera Sans" font-size="7.00">EQ_COMPRESSOR_TYPE_PRESSURE_OUT</text>
<polygon fill="none" stroke="black" points="612.75,-150.5 612.75,-152.5 745.75,-152.5 745.75,-150.5 612.75,-150.5"/>
<text text-anchor="start" x="614.75" y="-141.85" font-family="Bitstream-Vera Sans" font-size="7.00">&#45; id(PK) : INTEGER</text>
<text text-anchor="start" x="614.75" y="-128.85" font-family="Bitstream-Vera Sans" font-size="7.00">&#45; value : FLOAT</text>
<polygon fill="none" stroke="black" points="611.75,-123.5 611.75,-166.5 746.75,-166.5 746.75,-123.5 611.75,-123.5"/>
</g>
<!-- EQ_COMPRESSOR_TYPE&#45;&gt;EQ_COMPRESSOR_TYPE_PRESSURE_OUT -->
<g id="edge7" class="edge">
<title>EQ_COMPRESSOR_TYPE&#45;&gt;EQ_COMPRESSOR_TYPE_PRESSURE_OUT</title>
<path fill="none" stroke="black" d="M436.92,-248.04C482.45,-233.2 542.58,-212.31 594.25,-190 605.05,-185.34 616.38,-179.89 627.12,-174.44"/>
<polygon fill="black" stroke="black" points="436.97,-248.03 426.07,-246.83 431.9,-249.67 427.78,-251 427.78,-251 427.78,-251 431.9,-249.67 428.85,-255.39 436.97,-248.03"/>
<ellipse fill="none" stroke="black" cx="630.82" cy="-172.54" rx="4" ry="4"/>
<text text-anchor="middle" x="628.45" y="-172.84" font-family="Bitstream-Vera Sans" font-size="7.00">+ id</text>
<text text-anchor="middle" x="450.02" y="-253.56" font-family="Bitstream-Vera Sans" font-size="7.00">+ press_out_id</text>
</g>
<!-- UOM -->
<g id="node11" class="node">
<title>UOM</title>
<text text-anchor="start" x="347.75" y="-547.85" font-family="Bitstream-Vera Sans" font-size="7.00">UOM</text>
<polygon fill="none" stroke="black" points="316.88,-541.5 316.88,-543.5 393.62,-543.5 393.62,-541.5 316.88,-541.5"/>
<text text-anchor="start" x="318.88" y="-532.85" font-family="Bitstream-Vera Sans" font-size="7.00">&#45; id(PK) : INTEGER</text>
<text text-anchor="start" x="318.88" y="-519.85" font-family="Bitstream-Vera Sans" font-size="7.00">&#45; uom_code : VARCHAR</text>
<polygon fill="none" stroke="black" points="315.88,-514.5 315.88,-557.5 394.62,-557.5 394.62,-514.5 315.88,-514.5"/>
</g>
<!-- alembic_version -->
<g id="node12" class="node">
<title>alembic_version</title>
<text text-anchor="start" x="460.88" y="-541.35" font-family="Bitstream-Vera Sans" font-size="7.00">alembic_version</text>
<polygon fill="none" stroke="black" points="429.62,-535 429.62,-537 540.88,-537 540.88,-535 429.62,-535"/>
<text text-anchor="start" x="431.62" y="-526.35" font-family="Bitstream-Vera Sans" font-size="7.00">&#45; version_num(PK) : VARCHAR(32)</text>
<polygon fill="none" stroke="black" points="428.62,-521 428.62,-551 541.88,-551 541.88,-521 428.62,-521"/>
</g>
</g>
</svg>
